<mxfile host="app.diagrams.net" modified="2022-02-15T03:19:07.242Z" agent="5.0 (Macintosh; Intel Mac OS X 10_15_7) AppleWebKit/537.36 (KHTML, like Gecko) Chrome/98.0.4758.80 Safari/537.36" etag="6FEt6aw8Tf8qxljibA_a" version="16.1.0" type="github">
  <diagram id="ulIeYAHovhmhAu9V5S5R" name="Page-1">
    <mxGraphModel dx="1426" dy="801" grid="1" gridSize="10" guides="1" tooltips="1" connect="1" arrows="1" fold="1" page="1" pageScale="1" pageWidth="827" pageHeight="1169" math="0" shadow="0">
      <root>
        <mxCell id="0" />
        <mxCell id="1" parent="0" />
        <mxCell id="h8T1TJoiFMLlct1i7WOw-3" value="" style="edgeStyle=orthogonalEdgeStyle;rounded=0;orthogonalLoop=1;jettySize=auto;html=1;" edge="1" parent="1" source="h8T1TJoiFMLlct1i7WOw-1" target="h8T1TJoiFMLlct1i7WOw-2">
          <mxGeometry relative="1" as="geometry" />
        </mxCell>
        <mxCell id="h8T1TJoiFMLlct1i7WOw-1" value="现代前端" style="rounded=1;whiteSpace=wrap;html=1;" vertex="1" parent="1">
          <mxGeometry x="320" y="140" width="120" height="60" as="geometry" />
        </mxCell>
        <mxCell id="h8T1TJoiFMLlct1i7WOw-2" value="网络" style="rounded=1;whiteSpace=wrap;html=1;" vertex="1" parent="1">
          <mxGeometry x="320" y="260" width="120" height="60" as="geometry" />
        </mxCell>
        <mxCell id="h8T1TJoiFMLlct1i7WOw-4" value="现代前端" style="rounded=1;whiteSpace=wrap;html=1;" vertex="1" parent="1">
          <mxGeometry x="320" y="380" width="120" height="60" as="geometry" />
        </mxCell>
      </root>
    </mxGraphModel>
  </diagram>
</mxfile>
